<svg width="32" height="33" viewBox="0 0 32 33" fill="none" xmlns="http://www.w3.org/2000/svg">
<path d="M24.4598 10.6646L24.793 10.9979H31.3751L31.7084 10.6646V7.41525L26.2094 1.9163H25.4596L24.793 1.24976H24.4598L23.7099 0.499904H21.9603L21.4604 0H17.3778L16.8779 0.499904H16.128L15.2949 1.33308H11.4623L10.1292 2.66616V2.99943L15.2949 8.16511H16.128L16.8779 7.41525H21.4604L23.7099 9.66482V10.248L24.1265 10.6646H24.4598Z" fill="#000"/>
<path d="M31.5001 11.4978H24.7514L24.0015 12.2477H19.1691L18.7942 12.6226L24.5847 18.4132H29.3338L32 15.747V11.9977L31.5001 11.4978Z" fill="#000"/>
<path d="M9.12226 12.2786L17.2466 12.2786L17.6067 12.5389L17.6067 12.7992L7.87411 22.4034L0.33326 22.3514L0.338949 21.5267L0.991461 20.8831L0.995524 20.294L9.12226 12.2786Z" fill="#000"/>
<path d="M16.6833 11.482L16.8589 11.304L16.9133 10.6555L7.54085 1.41151L0 1.46353L0.00568899 2.28831L0.658201 2.93188L0.662265 3.52101L8.789 11.5364L16.6833 11.482Z" fill="#000"/>
<path d="M18.5442 13.3308H18.3776L18.211 13.4974V13.7474L17.8777 13.8307L17.7944 26.9115L23.1267 32.2438L23.7099 31.6606V30.7441L24.1265 30.3275V18.9131L18.5442 13.3308Z" fill="#000"/>
</svg>
