<svg width="2016" height="245" viewBox="0 0 2016 245" fill="none" xmlns="http://www.w3.org/2000/svg">
<path d="M1 107V1H101.5L1 107Z" fill="black" stroke="black"/>
<path d="M2015.5 138V244H1915L2015.5 138Z" fill="black" stroke="black"/>
<path d="M299.5 3H203.5L0.5 206V241H61.5L299.5 3Z" fill="black" stroke="black"/>
<path d="M1716 244H1812L2015 41V6H1954L1716 244Z" fill="black" stroke="black"/>
<path d="M491 4.5H396L159.5 244H254L491 4.5Z" fill="black" stroke="black"/>
<path d="M683.5 5H588.5L352 244.5H446.5L683.5 5Z" fill="black" stroke="black"/>
<path d="M880.5 5H785.5L549 244.5H643.5L880.5 5Z" fill="black" stroke="black"/>
<path d="M1075.5 5H980.5L744 244.5H838.5L1075.5 5Z" fill="black" stroke="black"/>
<path d="M1269.5 5H1174.5L938 244.5H1032.5L1269.5 5Z" fill="black" stroke="black"/>
<path d="M1467.5 5H1372.5L1136 244.5H1230.5L1467.5 5Z" fill="black" stroke="black"/>
<path d="M1658.5 5H1563.5L1327 244.5H1421.5L1658.5 5Z" fill="black" stroke="black"/>
<path d="M1859.5 5H1764.5L1528 244.5H1622.5L1859.5 5Z" fill="black" stroke="black"/>
</svg>
