<svg width="1715" height="536" viewBox="0 0 1715 536" fill="none" xmlns="http://www.w3.org/2000/svg">
<path d="M416.741 202.182C422.94 191.737 438.06 191.737 444.259 202.182L575.072 422.584C581.403 433.249 573.716 446.75 561.313 446.75H299.687C287.284 446.75 279.597 433.249 285.928 422.584L416.741 202.182Z" fill="black"/>
<path d="M783.741 202.182C789.94 191.737 805.06 191.737 811.259 202.182L942.072 422.584C948.403 433.249 940.716 446.75 928.313 446.75H666.687C654.284 446.75 646.597 433.249 652.928 422.584L783.741 202.182Z" fill="black"/>
<path d="M1150.74 202.182C1156.94 191.737 1172.06 191.737 1178.26 202.182L1309.07 422.584C1315.4 433.249 1307.72 446.75 1295.31 446.75H1033.69C1021.28 446.75 1013.6 433.249 1019.93 422.584L1150.74 202.182Z" fill="black"/>
<path d="M1517.74 202.182C1523.94 191.737 1539.06 191.737 1545.26 202.182L1676.07 422.584C1682.4 433.249 1674.72 446.75 1662.31 446.75H1400.69C1388.28 446.75 1380.6 433.249 1386.93 422.584L1517.74 202.182Z" fill="black"/>
<path d="M755.318 184.055C761.264 173.464 753.704 160.37 741.559 160.224L485.279 157.137C472.877 156.988 465.028 170.395 471.229 181.136L602.043 407.711C608.244 418.452 623.779 418.359 629.851 407.544L755.318 184.055Z" fill="black"/>
<path d="M387.724 182.422C393.67 171.831 386.111 158.737 373.965 158.591L117.685 155.504C105.284 155.355 97.4349 168.762 103.636 179.503L234.45 406.078C240.651 416.819 256.186 416.726 262.258 405.911L387.724 182.422Z" fill="black"/>
<path d="M1122.72 184.422C1128.67 173.831 1121.11 160.737 1108.97 160.591L852.685 157.504C840.283 157.355 832.435 170.762 838.636 181.503L969.449 408.078C975.651 418.819 991.186 418.726 997.257 407.911L1122.72 184.422Z" fill="black"/>
<path d="M1489.72 182.422C1495.67 171.831 1488.11 158.737 1475.97 158.591L1219.69 155.504C1207.28 155.355 1199.43 168.762 1205.64 179.503L1336.45 406.078C1342.65 416.819 1358.19 416.726 1364.26 405.911L1489.72 182.422Z" fill="black"/>
</svg>
